<?xml version="1.0" encoding="utf-8"?>
<!-- Generator: Adobe Illustrator 16.0.4, SVG Export Plug-In . SVG Version: 6.00 Build 0)  -->
<!DOCTYPE svg PUBLIC "-//W3C//DTD SVG 1.1//EN" "http://www.w3.org/Graphics/SVG/1.1/DTD/svg11.dtd">
<svg version="1.1" id="レイヤー_1" xmlns="http://www.w3.org/2000/svg" xmlns:xlink="http://www.w3.org/1999/xlink" x="0px"
	 y="0px" width="135px" height="135px" viewBox="0 0 135 135" enable-background="new 0 0 135 135" xml:space="preserve">
<path fill="#89807A" d="M67.447,58c5.524,0,10-4.477,10-10s-4.477-10-10-10c-5.523,0-10,4.477-10,10S61.924,58,67.447,58z
	 M76.895,67.447c0,5.522,4.478,10,10,10s10-4.478,10-10c0-5.523-4.478-10-10-10S76.895,61.924,76.895,67.447z M67.447,76.895
	c-5.523,0-10,4.478-10,10s4.477,10,10,10c5.524,0,10-4.478,10-10S72.971,76.895,67.447,76.895z M58,67.447c0-5.523-4.477-10-10-10
	s-10,4.477-10,10c0,5.522,4.477,10,10,10S58,72.97,58,67.447z">
<animateTransform  type="rotate" fill="remove" restart="always" additive="replace" accumulate="none" repeatCount="indefinite" calcMode="linear" dur="2.5s" attributeName="transform" from="0 67 67" to="-360 67 67">
		</animateTransform>
</path>
<path fill="#89807A" d="M28.19,40.31c6.627,0,12-5.374,12-12c0-6.628-5.373-12-12-12c-6.628,0-12,5.372-12,12
	C16.19,34.936,21.562,40.31,28.19,40.31z M58.91,20.485c4.686,4.687,12.283,4.687,16.97,0c4.687-4.686,4.687-12.284,0-16.97
	c-4.687-4.687-12.284-4.687-16.97,0C54.223,8.201,54.223,15.799,58.91,20.485z M94.65,28.19c0,6.627,5.369,12,12,12
	c6.625,0,12-5.373,12-12c0-6.628-5.375-12-12-12C100.02,16.19,94.65,21.562,94.65,28.19z M114.473,58.91
	c-4.687,4.686-4.687,12.283,0,16.97s12.284,4.687,16.969,0c4.688-4.687,4.688-12.284,0-16.97
	C126.757,54.223,119.159,54.223,114.473,58.91z M106.768,94.65c-6.627,0-12,5.369-12,12c0,6.625,5.373,12,12,12s12-5.375,12-12
	C118.768,100.02,113.395,94.65,106.768,94.65z M76.048,114.473c-4.687-4.687-12.284-4.687-16.97,0s-4.686,12.284,0,16.969
	c4.686,4.688,12.283,4.688,16.97,0C80.734,126.757,80.734,119.159,76.048,114.473z M40.308,106.768c0-6.627-5.372-12-12-12
	c-6.626,0-12,5.373-12,12s5.374,12,12,12C34.936,118.768,40.308,113.395,40.308,106.768z M20.485,76.048
	c4.687-4.687,4.687-12.284,0-16.97c-4.686-4.686-12.284-4.686-16.97,0c-4.687,4.686-4.687,12.283,0,16.97
	C8.201,80.734,15.799,80.734,20.485,76.048z">
<animateTransform  type="rotate" fill="remove" restart="always" additive="replace" accumulate="none" repeatCount="indefinite" calcMode="linear" dur="8s" attributeName="transform" from="0 67 67" to="360 67 67">
		</animateTransform>
</path>
</svg>
